<?xml version="1.0" encoding="UTF-8"?>
<svg version="1.1" xmlns="http://www.w3.org/2000/svg" width="1024" height="1024">
<path d="M0 0 C337.92 0 675.84 0 1024 0 C1024 337.92 1024 675.84 1024 1024 C686.08 1024 348.16 1024 0 1024 C0 686.08 0 348.16 0 0 Z " fill="#FCFCFC" transform="translate(0,0)"/>
<path d="M0 0 C22.77 0 45.54 0 69 0 C69.029729 9.47775146 69.029729 9.47775146 69.06005859 19.14697266 C69.12699451 40.03387782 69.20453528 60.9207337 69.28752708 81.80758095 C69.33758157 94.47001572 69.38402519 107.13244425 69.421875 119.79492188 C69.45488626 130.83558516 69.49476761 141.87619896 69.54279006 152.91680753 C69.56796441 158.75901585 69.58977219 164.60119173 69.60334396 170.44343948 C69.6162469 175.95094686 69.63838884 181.45834246 69.66738319 186.96578789 C69.67639498 188.97881671 69.6821341 190.9918635 69.68421364 193.00491142 C69.70722239 211.90771315 69.79687344 231.93509448 83.4375 246.625 C93.7509306 256.18378934 103.92818454 259.40874643 117.875 259.25 C118.75341553 259.24178223 119.63183105 259.23356445 120.53686523 259.22509766 C131.9537171 259.02863781 140.26171708 257.22688283 150 251 C150.598125 250.61972656 151.19625 250.23945312 151.8125 249.84765625 C162.23909914 242.21777511 166.0555234 227.08859529 168 215 C168.25433799 211.88668459 168.28599149 208.79581051 168.2784729 205.67318726 C168.2871615 204.34955058 168.2871615 204.34955058 168.29602563 202.99917376 C168.31289101 200.07281596 168.31589044 197.14661714 168.31884766 194.22021484 C168.32815514 192.11038838 168.33832502 190.00056557 168.34928894 187.89074707 C168.37651049 182.18491738 168.39171507 176.47911227 168.40471697 170.77323484 C168.42038189 164.80213329 168.44716138 158.83108167 168.4727478 152.86001587 C168.51947612 141.56267417 168.55624901 130.26532301 168.58942068 118.96793425 C168.62768411 106.10213625 168.67708321 93.23638849 168.72740483 80.37063289 C168.83063626 53.91378778 168.91845538 27.45692145 169 1 C191.77 1 214.54 1 238 1 C238.06788821 28.93060335 238.12308118 56.86113922 238.15543652 84.79180431 C238.17086324 97.76235611 238.19187201 110.73285276 238.22631836 123.70336914 C238.25634972 135.01690994 238.27560543 146.33041078 238.28226548 157.64399034 C238.28615459 163.62676179 238.2952058 169.60941896 238.31719017 175.59215355 C238.33777302 181.24001946 238.34379043 186.8877256 238.33932304 192.53562546 C238.34013861 194.59249939 238.34597289 196.64937949 238.35761642 198.70622063 C238.53169405 231.08527354 232.57224239 259.95303401 211 285 C210.41605469 285.68707031 209.83210937 286.37414062 209.23046875 287.08203125 C193.03528675 304.589228 168.91966369 313.30105775 146 317 C144.72511719 317.20882813 143.45023438 317.41765625 142.13671875 317.6328125 C119.9489154 320.74920031 98.694919 319.41127095 77 314 C75.12828125 313.56880859 75.12828125 313.56880859 73.21875 313.12890625 C59.29530862 309.45466478 45.65454664 301.57894479 35 292 C34.33355469 291.4740625 33.66710937 290.948125 32.98046875 290.40625 C11.3736767 273.01853569 3.17660172 245.37634193 0.26746917 218.93749952 C-0.49776378 210.5332732 -0.38862179 202.10494016 -0.34057617 193.67431641 C-0.33972706 191.54301974 -0.34021056 189.41172219 -0.34190369 187.28042603 C-0.342754 181.57108746 -0.325287 175.86194333 -0.30418181 170.1526494 C-0.2852517 164.15763401 -0.28365184 158.1626127 -0.28010559 152.16757202 C-0.27083261 140.84931919 -0.24628403 129.53115473 -0.21605712 118.21294057 C-0.18236412 105.31305107 -0.16598987 92.41315703 -0.15097082 79.51323438 C-0.11972951 53.00876285 -0.06477779 26.50441224 0 0 Z " fill="#CF9035" transform="translate(669,534)"/>
<path d="M0 0 C0.66547852 0.22558594 1.33095703 0.45117188 2.01660156 0.68359375 C17.85690873 6.09882189 32.14638225 13.64880802 46 23 C41.30349681 32.78681255 36.23277474 42.33611465 30.9375 51.8125 C30.3604834 52.84882568 29.7834668 53.88515137 29.18896484 54.95288086 C25.34770317 61.78523542 21.27572078 68.43113711 17 75 C16.31969727 74.54463867 15.63939453 74.08927734 14.93847656 73.62011719 C-7.81996306 58.49947188 -33.45458225 49.223772 -61.12060547 53.31347656 C-70.7858912 55.28125929 -80.65364264 60.1827832 -86.75 68.09765625 C-91.42573141 75.21353498 -93.01986846 81.4847127 -92 90 C-90.0074271 99.1314312 -85.80015164 105.09407178 -78.03125 110.26953125 C-66.98401467 116.57613596 -54.426045 119.91828631 -42.2578125 123.33203125 C-7.40140308 133.12160305 30.35227516 144.51484609 49.42578125 178.0234375 C49.94527344 179.00570312 50.46476563 179.98796875 51 181 C51.40605469 181.75539063 51.81210937 182.51078125 52.23046875 183.2890625 C57.88713934 194.86248049 59.65576542 206.92134645 59.46655273 219.62646484 C59.43731565 221.76347454 59.4460631 223.8980268 59.45898438 226.03515625 C59.44726846 234.07528862 58.6786231 241.35769509 56 249 C55.77046631 249.68416992 55.54093262 250.36833984 55.30444336 251.07324219 C47.10850946 274.47641645 30.63107623 291.72632947 8.5234375 302.73046875 C5.36640597 304.20012136 2.19752056 305.62091671 -1 307 C-2.11632812 307.50789063 -3.23265625 308.01578125 -4.3828125 308.5390625 C-8.22967744 310.09276389 -11.96691843 311.13967625 -16 312.0625 C-16.65355469 312.22298828 -17.30710937 312.38347656 -17.98046875 312.54882812 C-30.89002887 315.56428823 -43.68535189 316.35131005 -56.875 316.25 C-57.99668076 316.24435028 -57.99668076 316.24435028 -59.14102173 316.23858643 C-96.53972168 316.01790978 -131.55333087 305.59079743 -161 282 C-160.40877753 277.97195584 -159.12929037 275.10096597 -157.078125 271.59765625 C-156.1665564 270.02927002 -156.1665564 270.02927002 -155.23657227 268.42919922 C-154.25321899 266.76268311 -154.25321899 266.76268311 -153.25 265.0625 C-152.57616767 263.90935207 -151.90291535 262.75586503 -151.23022461 261.60205078 C-149.50363679 258.64526625 -147.76807982 255.6938704 -146.02874756 252.74456787 C-145.02407048 251.04081914 -144.02104797 249.33609508 -143.01806641 247.63134766 C-139.35870379 241.41296397 -135.68708244 235.20198738 -132 229 C-128.72466573 230.91684765 -125.62701393 232.95152016 -122.5625 235.1875 C-109.61887193 244.29240678 -96.47185515 250.51068446 -81 254 C-80.35345459 254.17136475 -79.70690918 254.34272949 -79.04077148 254.51928711 C-72.733954 256.10679446 -66.67362946 256.34778405 -60.1875 256.3125 C-59.12305664 256.30758545 -58.05861328 256.3026709 -56.96191406 256.29760742 C-49.60305016 256.18759681 -42.93365627 255.62607041 -36 253 C-34.39898437 252.40251953 -34.39898437 252.40251953 -32.765625 251.79296875 C-28.03437692 249.91971144 -24.05991013 248.06273922 -20 245 C-19.34 245 -18.68 245 -18 245 C-17.62875 244.2265625 -17.62875 244.2265625 -17.25 243.4375 C-16.19473418 241.37973165 -15.08843974 239.37972777 -13.9375 237.375 C-10.11997668 230.72512067 -10.35419388 224.50937348 -11 217 C-13.75231044 207.22543956 -20.57680178 201.8212843 -29.1027832 196.97241211 C-41.14541608 190.40328063 -53.56493333 186.21755055 -66.86499023 183.02783203 C-84.27623406 178.80722396 -101.41807322 174.00289103 -117 165 C-118.00933594 164.42507813 -119.01867187 163.85015625 -120.05859375 163.2578125 C-126.73612051 159.23833037 -132.45025201 154.45709777 -138 149 C-139.04994141 147.96939453 -139.04994141 147.96939453 -140.12109375 146.91796875 C-156.67403234 129.5260898 -161.65783224 106.68537368 -161.33129883 83.38110352 C-160.72581602 60.99278572 -152.89453826 40.11005742 -137 24 C-136.30132812 23.22914063 -135.60265625 22.45828125 -134.8828125 21.6640625 C-129.03453223 15.38733679 -122.47067659 11.15330901 -115 7 C-114.01902344 6.4534375 -113.03804687 5.906875 -112.02734375 5.34375 C-78.30430573 -12.44821622 -35.52345908 -12.37118004 0 0 Z " fill="#291D1C" transform="translate(283,537)"/>
<path d="M0 0 C82.83 0 165.66 0 251 0 C251 19.47 251 38.94 251 59 C220.64 59 190.28 59 159 59 C159 142.16 159 225.32 159 311 C136.56 311 114.12 311 91 311 C91 227.84 91 144.68 91 59 C60.97 59 30.94 59 0 59 C0 39.53 0 20.06 0 0 Z " fill="#281C1B" transform="translate(360,535)"/>
<path d="M0 0 C11.24974721 3.37492416 11.24974721 3.37492416 14.93505859 4.89086914 C15.77496338 5.23363892 16.61486816 5.57640869 17.48022461 5.92956543 C18.36073486 6.2944104 19.24124512 6.65925537 20.1484375 7.03515625 C21.10258545 7.42602417 22.0567334 7.81689209 23.03979492 8.21960449 C26.15333448 9.49622349 29.26414765 10.77934848 32.375 12.0625 C34.55921695 12.95936731 36.74362738 13.85576358 38.92822266 14.75170898 C43.41532207 16.59262555 47.90142203 18.43594574 52.38671875 20.28125 C61.45317421 24.01029147 70.52775987 27.71941958 79.60223389 31.42889404 C83.24822195 32.91950436 86.89382013 34.41106674 90.53939819 35.90267944 C93.91147735 37.28236776 97.28367196 38.66177371 100.65588379 40.0411377 C102.18349192 40.66600683 103.71108077 41.29092312 105.23864746 41.91589355 C109.74172403 43.75816579 114.2456057 45.59845196 118.75 47.4375 C119.8023584 47.86812744 120.8547168 48.29875488 121.93896484 48.74243164 C122.9027002 49.13551514 123.86643555 49.52859863 124.859375 49.93359375 C125.66858398 50.26415771 126.47779297 50.59472168 127.31152344 50.93530273 C130.85548908 52.33879294 134.43094245 53.66160342 138 55 C138 120.34 138 185.68 138 253 C112.755 253.495 112.755 253.495 87 254 C59.66616487 255.90384921 32.93677905 258.3499599 6 263 C4.02 263.33 2.04 263.66 0 264 C0 176.88 0 89.76 0 0 Z " fill="#CF9036" transform="translate(402,135)"/>
<path d="M0 0 C0 108.24 0 216.48 0 328 C-16.83 331.465 -16.83 331.465 -34 335 C-44.45546673 337.31564028 -54.69160674 339.97148714 -64.9621582 342.98266602 C-65.80480225 343.22944092 -66.64744629 343.47621582 -67.515625 343.73046875 C-68.26102539 343.95114014 -69.00642578 344.17181152 -69.77441406 344.39916992 C-72.15608229 345.04213674 -74.58097487 345.51619497 -77 346 C-77 243.7 -77 141.4 -77 36 C-67.76 31.71 -58.52 27.42 -49 23 C-41.69677803 19.47995624 -34.40232912 15.94743176 -27.125 12.375 C-25.32824799 11.49584234 -23.5313728 10.6169364 -21.734375 9.73828125 C-18.48901657 8.1504104 -15.24400789 6.5618389 -12.00048828 4.97021484 C-11.31649963 4.63528015 -10.63251099 4.30034546 -9.92779541 3.95526123 C-8.13850901 3.06863399 -6.36324716 2.15385619 -4.58935547 1.23681641 C-2 0 -2 0 0 0 Z " fill="#2A1D1C" transform="translate(388,73)"/>
<path d="M0 0 C3.74335394 0.0108072 7.48667183 0.01041564 11.23003864 0.01001644 C38.51202402 0.01054898 65.4777516 0.55943825 92.62426758 3.50811768 C93.66161041 3.61855408 94.69895325 3.72899048 95.76773071 3.84277344 C134.86552284 8.00939014 134.86552284 8.00939014 153.72949219 12.47735596 C157.88421306 13.44552933 162.06092787 14.26351053 166.24926758 15.07061768 C182.18768573 18.21653992 197.95390726 21.71422738 213.48608398 26.49908447 C216.38472392 27.36721588 219.29740662 28.18093702 222.21020508 29.00030518 C258.96173696 39.47385626 294.01754061 53.50252794 328.81176758 69.19561768 C330.198396 69.81630127 330.198396 69.81630127 331.61303711 70.44952393 C348.27235043 77.92569683 364.13988694 86.95699801 379.87426758 96.19561768 C381.25714966 97.00518921 381.25714966 97.00518921 382.66796875 97.83111572 C386.96089102 100.37754727 391.02224911 102.9181963 394.81176758 106.19561768 C384.44599521 104.15948382 374.3080532 100.94305018 364.43676758 97.19561768 C358.98134662 95.15805081 353.41493333 93.62799126 347.79467773 92.12139893 C343.36199895 90.92840884 338.97227711 89.63849735 334.58911133 88.27374268 C270.45127891 68.40738391 201.6137506 56.58035696 134.81176758 51.19561768 C133.68254883 51.10374176 133.68254883 51.10374176 132.53051758 51.01000977 C121.13253322 50.08386691 109.73129803 49.20060669 98.32530212 48.37870789 C96.42217581 48.24008087 94.51936486 48.09711557 92.61671448 47.95210266 C65.33503466 45.9153827 37.96060435 46.00746674 10.61914062 46.01031494 C6.55887362 46.01039586 2.4987203 46.00348791 -1.56152344 45.98980713 C-23.03516719 45.91875117 -44.46587404 46.06210436 -65.91870117 47.08233643 C-66.75753656 47.12128336 -67.59637196 47.16023029 -68.4606266 47.20035744 C-79.28885825 47.71710087 -90.04527291 48.6052141 -100.82463074 49.75262451 C-105.5818886 50.25280111 -110.34243864 50.55911359 -115.11791992 50.82720947 C-150.71310604 52.84249316 -186.05135209 58.36377793 -221.18823242 64.19561768 C-222.21216095 64.364505 -222.21216095 64.364505 -223.2567749 64.5368042 C-244.77746751 68.09489204 -266.00195422 73.04403634 -287.18823242 78.19561768 C-288.03272949 78.40057861 -288.87722656 78.60553955 -289.74731445 78.81671143 C-313.68963695 84.64758147 -337.15751995 91.51481065 -360.52832031 99.33282471 C-361.9441037 99.80619263 -361.9441037 99.80619263 -363.38848877 100.28912354 C-365.1537177 100.88128856 -366.91783551 101.47678045 -368.68060303 102.07623291 C-372.49619234 103.36226148 -376.20007621 104.54981545 -380.18823242 105.19561768 C-378.05857794 102.90549274 -375.95817123 101.32617258 -373.25073242 99.76983643 C-372.45175537 99.30996338 -371.65277832 98.85009033 -370.82958984 98.37628174 C-369.95794189 97.8835376 -369.08629395 97.39079346 -368.18823242 96.88311768 C-367.27340088 96.36330322 -366.35856934 95.84348877 -365.41601562 95.30792236 C-354.47296618 89.14863488 -343.3150349 83.40287818 -332.13012695 77.69805908 C-329.72664489 76.47058783 -327.32893844 75.23321338 -324.93432617 73.98858643 C-290.71459923 56.34679837 -253.95935122 41.24149661 -216.73510742 31.42608643 C-213.47147428 30.56138152 -210.24296844 29.61534211 -207.01635742 28.62139893 C-180.60619953 20.52930438 -153.36112833 15.04776197 -126.18823242 10.19561768 C-125.22643066 10.02078857 -124.26462891 9.84595947 -123.27368164 9.66583252 C-109.61969528 7.2144101 -95.91589343 5.51985286 -82.12573242 4.07061768 C-81.36127808 3.99012177 -80.59682373 3.90962585 -79.8092041 3.82669067 C-75.10586555 3.33616425 -70.40013057 2.87951568 -65.6918335 2.43930054 C-63.17123589 2.19396335 -60.65516195 1.91833897 -58.13793945 1.64068604 C-38.80112929 -0.36473403 -19.41471039 -0.07048997 0 0 Z " fill="#2A1E1D" transform="translate(512.188232421875,407.80438232421875)"/>
<path d="M0 0 C0 75.24 0 150.48 0 228 C-6.93 230.31 -13.86 232.62 -21 235 C-25.94213172 236.85452756 -30.85229422 238.72672493 -35.75 240.6875 C-36.9153125 241.14705078 -38.080625 241.60660156 -39.28125 242.08007812 C-44.99650311 244.34613719 -50.64922599 246.67431896 -56.20410156 249.31176758 C-58 250 -58 250 -61 250 C-61 176.41 -61 102.82 -61 27 C-49.12 21.555 -49.12 21.555 -37 16 C-32.08480469 13.73576172 -32.08480469 13.73576172 -27.0703125 11.42578125 C-22.546875 9.34570313 -22.546875 9.34570313 -20.34570312 8.33422852 C-18.82524894 7.63467918 -17.30542176 6.93376588 -15.78613281 6.23168945 C-13.5282851 5.18871829 -11.26830181 4.1505121 -9.0078125 3.11328125 C-8.3278421 2.79780838 -7.6478717 2.48233551 -6.94729614 2.15730286 C-2.22781238 0 -2.22781238 0 0 0 Z " fill="#2A1E1D" transform="translate(297,196)"/>
<path d="M0 0 C10.01945228 2.22654495 10.01945228 2.22654495 14.20703125 4.12109375 C19.82815908 6.55076812 25.51709002 8.72698178 31.26171875 10.84765625 C32.18453644 11.18896576 33.10735413 11.53027527 34.05813599 11.88192749 C37.9071352 13.30345566 41.75776823 14.72052344 45.60864258 16.13696289 C48.45224848 17.18390186 51.29451833 18.23440887 54.13671875 19.28515625 C54.99319504 19.5988063 55.84967133 19.91245636 56.73210144 20.23561096 C57.5535817 20.53950241 58.37506195 20.84339386 59.22143555 21.15649414 C59.92914597 21.41676895 60.63685638 21.67704376 61.36601257 21.94520569 C65.2911998 23.51706785 69.13620362 25.28275716 73 27 C73 56.04 73 85.08 73 115 C67.07118327 114.34124259 61.31199999 113.59825714 55.46875 112.51171875 C54.67513062 112.36724808 53.88151123 112.2227774 53.06384277 112.07392883 C50.54201877 111.61469962 48.02093626 111.15157592 45.5 110.6875 C30.36283998 107.90273399 15.20418256 105.43266921 0 103 C0 69.01 0 35.02 0 0 Z " fill="#CF9237" transform="translate(624,294)"/>
<path d="M0 0 C0 49.17 0 98.34 0 149 C-9.59533834 148.40029135 -19.17189535 147.7961022 -28.75 147 C-29.78898438 146.9175 -30.82796875 146.835 -31.8984375 146.75 C-32.89617188 146.6675 -33.89390625 146.585 -34.921875 146.5 C-35.80456055 146.4278125 -36.68724609 146.355625 -37.59667969 146.28125 C-40 146 -40 146 -44 145 C-44 102.1 -44 59.2 -44 15 C-22.28584559 6.55560662 -22.28584559 6.55560662 -14.125 3.5625 C-13.19042969 3.21251953 -12.25585938 2.86253906 -11.29296875 2.50195312 C-10.39449219 2.17259766 -9.49601563 1.84324219 -8.5703125 1.50390625 C-7.78414551 1.21330322 -6.99797852 0.9227002 -6.18798828 0.62329102 C-4 0 -4 0 0 0 Z " fill="#281C1B" transform="translate(615,246)"/>
<path d="M0 0 C7.33723643 2.00106448 14.30566565 4.07880315 21.375 6.7578125 C22.77262573 7.2805928 22.77262573 7.2805928 24.19848633 7.81393433 C27.13406377 8.91305007 30.06708098 10.01881255 33 11.125 C35.96204365 12.23678868 38.92459143 13.34722549 41.88720703 14.45748901 C43.720671 15.14517787 45.55369659 15.83403692 47.38623047 16.52420044 C48.2113916 16.83477386 49.03655273 17.14534729 49.88671875 17.46533203 C50.61076904 17.73830109 51.33481934 18.01127014 52.08081055 18.29251099 C53.70937887 18.89286557 55.35336878 19.45112293 57 20 C57 47.39 57 74.78 57 103 C52.46126416 102.09225283 48.46903881 100.74470531 44.19921875 99.05078125 C43.44518265 98.75568161 42.69114655 98.46058197 41.91426086 98.15653992 C39.50379637 97.21240756 37.09556704 96.26272852 34.6875 95.3125 C32.31832005 94.38115039 29.9486641 93.45103285 27.5785675 92.52201843 C26.10951147 91.94581084 24.64100749 91.36819216 23.17326355 90.78865051 C15.48192646 87.76405895 7.74241718 84.90340644 0 82 C0 54.94 0 27.88 0 0 Z " fill="#CE9035" transform="translate(762,347)"/>
<path d="M0 0 C21.78 0 43.56 0 66 0 C66 20.46 66 40.92 66 62 C44.22 62 22.44 62 0 62 C0 41.54 0 21.08 0 0 Z " fill="#CF9137" transform="translate(576,785)"/>
<path d="M0 0 C0 35.97 0 71.94 0 109 C-8.93638677 107.88295165 -8.93638677 107.88295165 -13.6875 106.3125 C-23.06558282 103.3467815 -32.54259574 100.7021155 -42 98 C-42 69.95 -42 41.9 -42 13 C-4 0 -4 0 0 0 Z " fill="#2A1E1C" transform="translate(754,315)"/>
<path d="M0 0 C17.42911608 6.90862042 34.77655097 14.00309686 52.10559082 21.15788269 C57.59295488 23.42237513 63.0845031 25.67651657 68.578125 27.92578125 C69.38287262 28.25531296 70.18762024 28.58484467 71.01675415 28.92436218 C72.65148894 29.59375078 74.28622405 30.26313859 75.92095947 30.93252563 C91.61260785 37.35854191 107.2786842 43.84334888 122.91943359 50.39233398 C124.00745773 50.84727234 124.00745773 50.84727234 125.11746216 51.31140137 C126.46769175 51.87604679 127.81754999 52.4415814 129.16696167 53.00817871 C131.76044518 54.09234164 134.33175655 55.11058552 137 56 C137 62.6 137 69.2 137 76 C133.07749644 75.21549929 130.07456497 74.3495273 126.42578125 72.875 C125.30469971 72.42439209 124.18361816 71.97378418 123.02856445 71.50952148 C121.78983742 71.00644337 120.55115064 70.50326615 119.3125 70 C118.00169034 69.47107825 116.6907322 68.94252434 115.37963867 68.41430664 C111.72033455 66.93861974 108.06337824 65.45718844 104.40673828 63.97491455 C101.03466813 62.60896617 97.66116579 61.24657198 94.28770447 59.88406372 C77.10466527 52.94381072 59.92783111 45.98808277 42.77124023 38.98266602 C37.36718663 36.77640257 31.96018034 34.57776666 26.54782104 32.39196777 C23.55600762 31.18365719 20.56490509 29.97359158 17.5737915 28.7635498 C16.11692867 28.1748195 14.659698 27.58699857 13.2020874 27.00012207 C11.18328349 26.18723491 9.16574305 25.37128454 7.1484375 24.5546875 C5.98489746 24.08530762 4.82135742 23.61592773 3.62255859 23.13232422 C1 22 1 22 0 21 C-0.08685603 19.43827255 -0.10702219 17.87270656 -0.09765625 16.30859375 C-0.09443359 15.36435547 -0.09121094 14.42011719 -0.08789062 13.44726562 C-0.07951172 12.45404297 -0.07113281 11.46082031 -0.0625 10.4375 C-0.05798828 9.44041016 -0.05347656 8.44332031 -0.04882812 7.41601562 C-0.03700007 4.94395151 -0.02051849 2.47200482 0 0 Z " fill="#CE9037" transform="translate(403,98)"/>
<path d="M0 0 C6.62933307 2.0499984 12.87360726 4.63595502 19.1875 7.5 C31.56829085 13.03184272 44.08504894 18.2162164 56.625 23.375 C57.6251413 23.78661377 58.62528259 24.19822754 59.6557312 24.62231445 C63.65039744 26.26632726 67.64507698 27.91030757 71.63996887 29.55377197 C83.60906266 34.48061508 95.5447136 39.48580124 107.47167969 44.51367188 C110.55465582 45.81239584 113.63893615 47.10793245 116.72387695 48.40197754 C119.77514026 49.68254034 122.82497655 50.96648697 125.875 52.25 C126.98842773 52.71664062 128.10185547 53.18328125 129.24902344 53.6640625 C130.25739258 54.08945313 131.26576172 54.51484375 132.3046875 54.953125 C133.19140137 55.32598633 134.07811523 55.69884766 134.99169922 56.08300781 C137 57 137 57 138 58 C138.08631874 59.34267413 138.10706473 60.68974322 138.09765625 62.03515625 C138.09443359 62.84404297 138.09121094 63.65292969 138.08789062 64.48632812 C138.07951172 65.33646484 138.07113281 66.18660156 138.0625 67.0625 C138.05798828 67.91650391 138.05347656 68.77050781 138.04882812 69.65039062 C138.03700373 71.76695663 138.01906769 73.88348685 138 76 C130.82646598 73.72090846 123.93680295 70.9771063 117 68.0625 C114.4215554 66.98591699 111.84175024 65.91261748 109.26171875 64.83984375 C108.55464279 64.54565552 107.84756683 64.25146729 107.11906433 63.94836426 C97.7656317 60.06282737 88.38331363 56.24781052 79.00387573 52.42559814 C49.01619497 40.20456082 49.01619497 40.20456082 34.04574585 34.05340576 C32.67591584 33.49078462 31.30583294 32.92877869 29.93545532 32.36749268 C22.63464514 29.37643778 15.36460396 26.32112491 8.12890625 23.17578125 C7.43167953 22.87415573 6.73445282 22.57253021 6.01609802 22.26176453 C1.11920185 20.11920185 1.11920185 20.11920185 0 19 C-0.08651611 17.58429877 -0.10704904 16.164405 -0.09765625 14.74609375 C-0.09443359 13.89208984 -0.09121094 13.03808594 -0.08789062 12.15820312 C-0.07951172 11.26037109 -0.07113281 10.36253906 -0.0625 9.4375 C-0.05798828 8.53580078 -0.05347656 7.63410156 -0.04882812 6.70507812 C-0.03700225 4.46998686 -0.0205222 2.23502563 0 0 Z " fill="#CD9037" transform="translate(402,68)"/>
<path d="M0 0 C7.53300344 4.50714156 13.12740468 11.4883988 15.4375 20 C16.58061008 28.97601211 14.86297919 36.79647448 9.75 44.25 C4.36292879 50.94383601 -2.56528959 54.20989133 -11.0234375 55.32421875 C-19.85012795 55.89327472 -27.04697213 52.81222441 -33.76953125 47.13671875 C-39.70883527 40.89732358 -41.67032013 34.43381973 -41.9375 25.9375 C-41.70138761 17.84808434 -39.20721532 10.92141705 -33.5625 5 C-24.02520332 -2.45521079 -11.43552884 -5.25893147 0 0 Z " fill="#F9F8F8" transform="translate(404.5625,892)"/>
<path d="M0 0 C7.1775 -0.1546875 7.1775 -0.1546875 14.5 -0.3125 C15.99337891 -0.35802002 17.48675781 -0.40354004 19.02539062 -0.45043945 C26.59903128 -0.52937398 32.29573255 -0.34294593 38 5 C41.36429516 8.78483206 42.67842408 11.77042093 42.3828125 16.9140625 C41.38533401 22.34930246 39.19963517 26.02070599 34.9375 29.5 C32 31 32 31 29 31 C29.39380859 31.65597168 29.78761719 32.31194336 30.19335938 32.98779297 C31.96677373 35.94750609 33.73345997 38.9111792 35.5 41.875 C36.43005859 43.42380859 36.43005859 43.42380859 37.37890625 45.00390625 C37.96542969 45.99003906 38.55195312 46.97617187 39.15625 47.9921875 C39.70087891 48.90339355 40.24550781 49.81459961 40.80664062 50.75341797 C42 53 42 53 42 55 C39.03 55 36.06 55 33 55 C31.15984502 51.7121022 29.32904953 48.41908674 27.5 45.125 C26.97535156 44.18785156 26.45070313 43.25070312 25.91015625 42.28515625 C25.16572266 40.94130859 25.16572266 40.94130859 24.40625 39.5703125 C23.94541016 38.74289551 23.48457031 37.91547852 23.00976562 37.06298828 C22 35 22 35 22 33 C17.71 33 13.42 33 9 33 C9 40.26 9 47.52 9 55 C6.03 55 3.06 55 0 55 C0 36.85 0 18.7 0 0 Z " fill="#342927" transform="translate(717,891)"/>
<path d="M0 0 C7.57256293 -0.5878232 15.13921668 -0.98754857 22.72949219 -1.26342773 C25.30366481 -1.37845563 27.87635435 -1.53498217 30.4453125 -1.73510742 C47.67291195 -3.04255917 47.67291195 -3.04255917 55 0 C61.82349291 6.11718918 65.6472258 14.61267202 69 23 C71.50869092 19.97675689 73.65340425 17.05021954 75.48046875 13.57421875 C75.92326172 12.77822266 76.36605469 11.98222656 76.82226562 11.16210938 C77.73621518 9.50549409 78.62681586 7.83579197 79.49414062 6.15429688 C80.84705046 3.77651416 82.00436003 1.87593578 84 0 C87.12755742 -0.71341563 89.85505255 -0.54439315 93 0 C90.02531275 6.22959866 86.60118169 12.00564021 82.875 17.8125 C82.33746094 18.65748047 81.79992187 19.50246094 81.24609375 20.37304688 C79.19005208 23.60067339 77.12282369 26.81576447 75 30 C74.63201307 32.71075544 74.63201307 32.71075544 74.5859375 35.76171875 C74.54726563 36.87998047 74.50859375 37.99824219 74.46875 39.15039062 C74.4378125 40.31763672 74.406875 41.48488281 74.375 42.6875 C74.33632813 43.86634766 74.29765625 45.04519531 74.2578125 46.25976562 C74.16345609 49.17301977 74.07786839 52.08626607 74 55 C71.03 55 68.06 55 65 55 C65.05349609 54.37359619 65.10699219 53.74719238 65.16210938 53.10180664 C66.52769863 32.86575622 60.24442278 20.49014682 48 5 C47.34 4.34 46.68 3.68 46 3 C46 4.32 46 5.64 46 7 C39.73 7 33.46 7 27 7 C27 22.51 27 38.02 27 54 C24.69 54 22.38 54 20 54 C20 38.49 20 22.98 20 7 C13.4 7 6.8 7 0 7 C0 4.69 0 2.38 0 0 Z " fill="#322828" transform="translate(819,891)"/>
<path d="M0 0 C8 0 8 0 9.86694336 1.18652344 C10.27050049 1.73856445 10.67405762 2.29060547 11.08984375 2.859375 C11.5593042 3.47449951 12.02876465 4.08962402 12.51245117 4.72338867 C13.21785034 5.72656128 13.21785034 5.72656128 13.9375 6.75 C14.70380737 7.77347534 14.70380737 7.77347534 15.4855957 8.81762695 C16.52279216 10.20774592 17.549218 11.60596919 18.56445312 13.01220703 C19.83803666 14.77573036 21.13505997 16.51572491 22.453125 18.24609375 C24.65721522 21.14763211 26.82888077 24.07370886 29 27 C31.97 30.96 34.94 34.92 38 39 C38.33 26.13 38.66 13.26 39 0 C41.64 0 44.28 0 47 0 C47 18.15 47 36.3 47 55 C40 55 40 55 38.15820312 53.66503906 C37.70380859 53.03823242 37.24941406 52.41142578 36.78125 51.765625 C36.24854492 51.05543213 35.71583984 50.34523926 35.16699219 49.61352539 C34.61688477 48.83356201 34.06677734 48.05359863 33.5 47.25 C32.9112207 46.45392334 32.32244141 45.65784668 31.71582031 44.83764648 C30.45592197 43.13187933 29.20522319 41.41928629 27.96289062 39.70068359 C25.9482869 36.92884947 23.89521126 34.18991157 21.828125 31.45703125 C19.20523168 27.98920399 16.58669666 24.51845764 13.984375 21.03515625 C13.45553711 20.3275415 12.92669922 19.61992676 12.38183594 18.89086914 C11.21235582 17.2905823 10.09945465 15.64918197 9 14 C8.67 27.53 8.34 41.06 8 55 C5.36 55 2.72 55 0 55 C0 36.85 0 18.7 0 0 Z " fill="#312626" transform="translate(268,891)"/>
<path d="M0 0 C7 0 7 0 9.16015625 1.73828125 C9.78792969 2.58777344 10.41570313 3.43726563 11.0625 4.3125 C11.81402344 5.30636719 12.56554687 6.30023437 13.33984375 7.32421875 C14.22707186 8.54911038 15.11373741 9.77440959 16 11 C17.14555246 12.54934873 18.29279851 14.09744618 19.44140625 15.64453125 C22.33615932 19.55089364 25.20756642 23.47349602 28.06298828 27.40869141 C30.98405049 31.3164497 34.00467572 35.14886878 37 39 C37.33 26.13 37.66 13.26 38 0 C40.64 0 43.28 0 46 0 C46 18.15 46 36.3 46 55 C38 55 38 55 35.890625 53.15625 C35.34921875 52.2796875 34.8078125 51.403125 34.25 50.5 C33.59386719 49.49710938 32.93773437 48.49421875 32.26171875 47.4609375 C31.9064209 46.90631836 31.55112305 46.35169922 31.18505859 45.78027344 C28.96696549 42.44810719 26.4933121 39.30339857 24.0625 36.125 C18.80378195 29.23225814 13.9454647 22.143449 9 15 C8.67 28.2 8.34 41.4 8 55 C5.36 55 2.72 55 0 55 C0 36.85 0 18.7 0 0 Z " fill="#322625" transform="translate(552,891)"/>
<path d="M0 0 C2.97 0 5.94 0 9 0 C15.84215224 15.59394696 22.54003411 31.24343964 29 47 C29.5578418 48.29719971 29.5578418 48.29719971 30.12695312 49.62060547 C31 52 31 52 31 55 C28.03 55 25.06 55 22 55 C21.16260219 52.8765984 20.33019717 50.7512272 19.5 48.625 C19.0359375 47.44164062 18.571875 46.25828125 18.09375 45.0390625 C17 42 17 42 17 40 C4.625 40.495 4.625 40.495 -8 41 C-9.98 45.62 -11.96 50.24 -14 55 C-16.97 55 -19.94 55 -23 55 C-21.33130583 50.75660285 -19.54094277 46.56878447 -17.734375 42.3828125 C-17.08456059 40.87242802 -16.43482365 39.36201022 -15.78515625 37.8515625 C-14.77476679 35.50419304 -13.76383333 33.15706355 -12.75146484 30.81054688 C-8.34723592 20.59847192 -4.0710631 10.34967451 0 0 Z " fill="#2F2322" transform="translate(233,891)"/>
<path d="M0 0 C7.53300344 4.50714156 13.12740468 11.4883988 15.4375 20 C16.58061008 28.97601211 14.86297919 36.79647448 9.75 44.25 C4.36292879 50.94383601 -2.56528959 54.20989133 -11.0234375 55.32421875 C-19.85012795 55.89327472 -27.04697213 52.81222441 -33.76953125 47.13671875 C-39.70883527 40.89732358 -41.67032013 34.43381973 -41.9375 25.9375 C-41.70138761 17.84808434 -39.20721532 10.92141705 -33.5625 5 C-24.02520332 -2.45521079 -11.43552884 -5.25893147 0 0 Z M-29.5625 12 C-33.92961073 18.23872961 -34.28608416 24.54708317 -33.5625 32 C-31.77543704 38.29778212 -27.79871632 42.27274257 -22.5625 46 C-17.42883965 48.56683017 -9.36701222 47.92761301 -4.03515625 46.1640625 C1.8986672 42.77005216 5.30917274 37.38498177 7.4375 31 C8.17731962 24.17182876 7.56978576 18.61412584 3.4375 13 C-0.38939068 9.00440648 -4.49886863 5.35634383 -10.1484375 4.69921875 C-18.34865231 4.66476407 -23.4225309 6.35786623 -29.5625 12 Z " fill="#2D2221" transform="translate(404.5625,892)"/>
<path d="M0 0 C12.21 0 24.42 0 37 0 C37 2.31 37 4.62 37 7 C27.76 7 18.52 7 9 7 C9 12.28 9 17.56 9 23 C16.26 23 23.52 23 31 23 C31 25.31 31 27.62 31 30 C23.74 30 16.48 30 9 30 C9 35.61 9 41.22 9 47 C18.57 47 28.14 47 38 47 C38 49.64 38 52.28 38 55 C25.46 55 12.92 55 0 55 C0 36.85 0 18.7 0 0 Z " fill="#382C2B" transform="translate(674,891)"/>
<path d="M0 0 C2.64 0 5.28 0 8 0 C8 7.59 8 15.18 8 23 C17.24 23 26.48 23 36 23 C36 15.41 36 7.82 36 0 C38.64 0 41.28 0 44 0 C44 17.82 44 35.64 44 54 C41.69 54 39.38 54 37 54 C37 46.08 37 38.16 37 30 C27.43 30 17.86 30 8 30 C8 38.25 8 46.5 8 55 C5.36 55 2.72 55 0 55 C0 36.85 0 18.7 0 0 Z " fill="#2D201F" transform="translate(162,891)"/>
<path d="M0 0 C2.64 0 5.28 0 8 0 C8.01458252 1.11971191 8.02916504 2.23942383 8.04418945 3.39306641 C8.10234886 7.56428274 8.17958023 11.73496919 8.26245117 15.90576172 C8.29561773 17.70775729 8.32367525 19.50985467 8.34643555 21.31201172 C8.38013432 23.90896823 8.43245649 26.50499866 8.48828125 29.1015625 C8.49467117 29.9017984 8.5010611 30.7020343 8.50764465 31.52651978 C8.65623191 37.23406976 9.6616842 41.65675104 13.8515625 45.85546875 C18.8355523 48.51057604 25.209843 47.34546889 30.5625 46.3125 C33.11140171 45.22054836 33.11140171 45.22054836 34.12646484 42.99536133 C35.32193844 38.89606966 35.35623496 35.01269863 35.4140625 30.76171875 C35.43342865 29.88095169 35.4527948 29.00018463 35.4727478 28.09272766 C35.53232851 25.29108234 35.57884265 22.48939544 35.625 19.6875 C35.66319959 17.78318562 35.70225247 15.87888815 35.7421875 13.97460938 C35.83801233 9.31654428 35.9221226 4.65839832 36 0 C38.64 0 41.28 0 44 0 C44.0994991 5.53176738 44.17176423 11.06300426 44.21972656 16.59545898 C44.2397382 18.47413213 44.26695637 20.3527438 44.30175781 22.23120117 C44.3507397 24.94465373 44.37307329 27.65727696 44.390625 30.37109375 C44.41127014 31.19959335 44.43191528 32.02809296 44.45318604 32.88169861 C44.45585463 39.94925072 42.68940711 46.16118138 37.75 51.375 C30.68556039 55.54944159 24.24389444 57.05906965 16 56 C9.8218828 54.21355647 5.48377634 50.3366128 2 45 C-0.45058695 40.30341639 -0.25807063 35.92426378 -0.1953125 30.76171875 C-0.1924826 29.88095169 -0.18965271 29.00018463 -0.18673706 28.09272766 C-0.17557833 25.29084455 -0.15048171 22.48928584 -0.125 19.6875 C-0.11496463 17.78320775 -0.10583975 15.87891048 -0.09765625 13.97460938 C-0.07565309 9.31628203 -0.04115294 4.65819594 0 0 Z " fill="#2E2322" transform="translate(498,891)"/>
<path d="M0 0 C2.64 0 5.28 0 8 0 C8.01458252 1.11971191 8.02916504 2.23942383 8.04418945 3.39306641 C8.10234886 7.56428274 8.17958023 11.73496919 8.26245117 15.90576172 C8.29561773 17.70775729 8.32367525 19.50985467 8.34643555 21.31201172 C8.38013432 23.90896823 8.43245649 26.50499866 8.48828125 29.1015625 C8.49467117 29.9017984 8.5010611 30.7020343 8.50764465 31.52651978 C8.65621831 37.23354727 9.6631778 41.65329695 13.84765625 45.85546875 C16.53973245 47.28700836 18.39939348 47.36727862 21.4375 47.3125 C22.82775391 47.30669922 22.82775391 47.30669922 24.24609375 47.30078125 C27.30544852 46.96663896 29.32771711 46.54805036 32 45 C35.23538838 39.95950761 35.46669489 35.67545694 35.51171875 29.8828125 C35.52966995 29.02565643 35.54762115 28.16850037 35.56611633 27.28536987 C35.62001405 24.56529564 35.65404858 21.8453948 35.6875 19.125 C35.72069126 17.27341348 35.75518259 15.42184978 35.79101562 13.5703125 C35.87572852 9.04700052 35.9426372 4.52373814 36 0 C38.64 0 41.28 0 44 0 C44.12419787 5.69246586 44.2146204 11.38413197 44.2746582 17.07763672 C44.29970241 19.01169587 44.33374811 20.94566131 44.37719727 22.87939453 C44.4382965 25.66983231 44.46631051 28.4590121 44.48828125 31.25 C44.51408768 32.10553467 44.5398941 32.96106934 44.56648254 33.8425293 C44.56969084 40.81077242 42.32938745 45.47527562 37.55683899 50.52783203 C31.96186815 55.57177826 26.18493569 56.54021649 18.8828125 56.37109375 C13.13991507 55.63183189 8.12065481 53.46190961 4.30078125 49.02734375 C1.33732575 44.48451082 -0.13120837 40.41217866 -0.11352539 34.96582031 C-0.11344986 34.18531311 -0.11337433 33.40480591 -0.11329651 32.60064697 C-0.10813522 31.76821472 -0.10297394 30.93578247 -0.09765625 30.078125 C-0.0962413 29.21813904 -0.09482635 28.35815308 -0.09336853 27.47210693 C-0.08778097 24.73136891 -0.07523075 21.99071324 -0.0625 19.25 C-0.05748339 17.3893241 -0.05292077 15.52864691 -0.04882812 13.66796875 C-0.03781561 9.11194754 -0.02055951 4.55598772 0 0 Z " fill="#2E2322" transform="translate(426,891)"/>
<path d="M0 0 C2.1148705 1.18877275 4.08421739 2.4133395 6.015625 3.87890625 C5.40284888 6.84065748 4.76189978 8.25949408 3.015625 10.87890625 C-1.671257 9.05622992 -1.671257 9.05622992 -3.83984375 7.828125 C-6.37594481 6.70558846 -8.28131346 6.5789201 -11.046875 6.56640625 C-11.90410156 6.54964844 -12.76132812 6.53289063 -13.64453125 6.515625 C-16.45300965 6.95166589 -17.32115138 7.60796631 -18.984375 9.87890625 C-19.56782976 12.83637117 -19.56782976 12.83637117 -18.984375 15.87890625 C-15.7742672 20.07988916 -11.87758519 21.27600879 -7.046875 22.87890625 C-1.29719417 24.79722323 3.83443062 26.52118883 7.3046875 31.86328125 C9.08016866 36.897063 8.61329892 42.21583157 6.640625 47.12890625 C3.78918042 52.13144059 -0.6162724 54.23299012 -5.984375 55.87890625 C-13.99757759 57.26953316 -20.27044126 55.32563475 -26.984375 50.87890625 C-28.765625 49.3984375 -28.765625 49.3984375 -29.984375 47.87890625 C-29.984375 46.88890625 -29.984375 45.89890625 -29.984375 44.87890625 C-29.324375 44.87890625 -28.664375 44.87890625 -27.984375 44.87890625 C-27.654375 43.88890625 -27.324375 42.89890625 -26.984375 41.87890625 C-24.10281785 42.30580361 -22.95813748 42.90262093 -20.75 44.8984375 C-17.37425286 47.31581575 -15.53021156 47.38781419 -11.421875 47.31640625 C-10.30683594 47.31511719 -9.19179688 47.31382812 -8.04296875 47.3125 C-4.72837337 46.84261483 -3.2957174 46.27339046 -0.984375 43.87890625 C-0.31760622 40.42140676 -0.31760622 40.42140676 -0.984375 36.87890625 C-4.16181081 32.6665804 -8.10382616 31.47760249 -12.921875 29.87890625 C-18.65851854 27.96493902 -23.74104476 26.23706219 -27.265625 20.9609375 C-28.75202146 16.65523471 -28.71569877 12.34250308 -27.984375 7.87890625 C-22.42850703 -2.29482601 -10.27225506 -3.85881833 0 0 Z " fill="#2F2422" transform="translate(791.984375,891.12109375)"/>
<path d="M0 0 C2.14186363 1.3485808 4.2690332 2.72102213 6.375 4.125 C5.40191702 6.55770745 4.72331384 7.88935427 2.52734375 9.375 C0.375 10.125 0.375 10.125 -1.44921875 9.4453125 C-2.06410156 9.05085937 -2.67898437 8.65640625 -3.3125 8.25 C-7.62588723 5.86713627 -11.75266813 5.05827646 -16.625 6.125 C-19.39984633 8.23438545 -19.59957715 8.96963812 -20.1875 12.5625 C-19.97688711 16.20822457 -19.97688711 16.20822457 -17.4375 18.25 C-13.11532515 20.66381603 -8.32480686 22.17763758 -3.69921875 23.90234375 C0.38444638 25.52646978 4.10575588 27.0756996 6.5 30.94140625 C8.51406209 35.96757012 7.94937982 41.49255209 6.1875 46.5 C2.83522569 51.35501796 -0.87975999 53.84828 -6.625 55.125 C-13.76360451 55.84761948 -19.74141364 55.51772285 -25.625 51.125 C-27.53265805 49.21734195 -29.02981081 47.31838513 -30.625 45.125 C-29.305 43.805 -27.985 42.485 -26.625 41.125 C-24.44283241 42.13814924 -22.69330665 43.06392401 -20.890625 44.67578125 C-17.86070834 46.61388311 -15.69703094 46.52457819 -12.125 46.5 C-10.43890625 46.51160156 -10.43890625 46.51160156 -8.71875 46.5234375 C-5.3554159 46.09028084 -3.92007288 45.60390153 -1.625 43.125 C-1.14442285 41.0761352 -1.14442285 41.0761352 -1.375 38.9375 C-1.4575 37.679375 -1.54 36.42125 -1.625 35.125 C-6.6481831 32.51721984 -11.63838418 30.0626174 -16.9375 28.0625 C-21.63588904 26.21854826 -25.26468864 24.39218561 -27.9375 19.9375 C-29.26979845 14.48718815 -29.48432852 9.94677647 -27.0625 4.8125 C-19.99326457 -2.98178521 -9.61646865 -4.72824521 0 0 Z " fill="#2E2323" transform="translate(147.625,891.875)"/>
<path d="M0 0 C6.85318467 1.98631919 13.52304554 4.22218216 20.1875 6.765625 C21.12948242 7.12211121 22.07146484 7.47859741 23.04199219 7.84588623 C26.02921956 8.97739118 29.0145956 10.11369529 32 11.25 C33.96993958 11.99639074 35.93999091 12.74248661 37.91015625 13.48828125 C49.63099548 17.93043248 61.32655176 22.4348219 73 27 C73 30.96 73 34.92 73 39 C65.57245406 36.87784402 58.43538673 34.32722926 51.25 31.5 C39.87490367 27.06901766 28.44100346 22.82593506 16.96386719 18.66796875 C11.23822456 16.58647673 5.55912884 14.49543117 0 12 C0 8.04 0 4.08 0 0 Z " fill="#CE933C" transform="translate(624,277)"/>
<path d="M0 0 C2.97 0 5.94 0 9 0 C9.4439209 1.17095215 9.8878418 2.3419043 10.34521484 3.54833984 C11.99099466 7.88521416 13.64382936 12.21937065 15.29882812 16.55273438 C16.01462981 18.42992755 16.72850668 20.30785585 17.44042969 22.18652344 C18.4630633 24.88411127 19.49255156 27.57899432 20.5234375 30.2734375 C20.84122162 31.11619232 21.15900574 31.95894714 21.48641968 32.82723999 C21.7865799 33.60789825 22.08674011 34.38855652 22.39599609 35.19287109 C22.65802826 35.88126068 22.92006042 36.56965027 23.19003296 37.27890015 C23.97655801 39.20235974 23.97655801 39.20235974 26 41 C26.37809814 39.97116699 26.75619629 38.94233398 27.14575195 37.88232422 C28.55680707 34.04558129 29.97243187 30.21053765 31.3894043 26.37597656 C32.00066812 24.71985738 32.61071137 23.06328712 33.21948242 21.40625 C34.0974973 19.01701572 34.97996858 16.62946744 35.86328125 14.2421875 C36.13215652 13.50757294 36.4010318 12.77295837 36.67805481 12.01608276 C38.21859612 7.86754221 39.93940572 3.92674192 42 0 C44.97 0 47.94 0 51 0 C44.01811791 18.48793007 36.63869733 36.77551601 29 55 C26.36 55 23.72 55 21 55 C20.65171143 54.05672852 20.30342285 53.11345703 19.94458008 52.14160156 C15.73746513 40.80464497 11.26193573 29.58566339 6.72729492 18.37646484 C5.79907489 16.07997972 4.87400071 13.78224632 3.94921875 11.484375 C3.66696945 10.78963074 3.38472015 10.09488647 3.09391785 9.37908936 C1.83707586 6.25308221 0.81972715 3.27890859 0 0 Z " fill="#302423" transform="translate(620,891)"/>
<path d="M0 0 C6.09163121 1.9856949 12.07791781 4.13058778 18.0390625 6.4765625 C18.87533676 6.80357147 19.71161102 7.13058044 20.57322693 7.46749878 C23.25798421 8.51788625 25.94150227 9.57139939 28.625 10.625 C30.46923852 11.34721244 32.31355851 12.06921689 34.15795898 12.79101562 C37.78302645 14.21005594 41.40762185 15.6302904 45.03173828 17.05175781 C50.38287432 19.15056776 55.73597176 21.24433209 61.08935547 23.33740234 C65.06015305 24.89011528 69.03014188 26.44488692 73 28 C73 31.63 73 35.26 73 39 C67.73681727 38.36430197 63.24113746 36.70502361 58.359375 34.75390625 C57.52705856 34.42680161 56.69474213 34.09969696 55.83720398 33.76268005 C53.13936025 32.70121819 50.44472514 31.63185101 47.75 30.5625 C45.90008218 29.83332132 44.04990185 29.10480829 42.19946289 28.37695312 C39.42487187 27.28552784 36.65043411 26.19373449 33.87684631 25.09976196 C26.07950911 22.02480876 18.26417387 18.99947422 10.4375 16 C8.81763184 15.37847046 8.81763184 15.37847046 7.16503906 14.74438477 C4.77706386 13.82862144 2.38860134 12.91412894 0 12 C0 8.04 0 4.08 0 0 Z " fill="#CF9238" transform="translate(624,260)"/>
<path d="M0 0 C6.97031515 1.9764115 13.70576589 4.32162508 20.44140625 6.984375 C21.40795639 7.36305725 22.37450653 7.7417395 23.37034607 8.13189697 C25.40558921 8.93014086 27.4400903 9.73027907 29.47387695 10.53222656 C32.52849094 11.736591 35.58529884 12.93523232 38.64257812 14.1328125 C50.14143925 18.64518766 61.5974913 23.2493554 73 28 C73 31.63 73 35.26 73 39 C65.75748346 36.92224572 58.7730656 34.47858832 51.76171875 31.7265625 C50.71909378 31.32094086 49.67646881 30.91531921 48.60224915 30.49740601 C45.2959102 29.21021915 41.99166508 27.91775549 38.6875 26.625 C36.48256258 25.76526405 34.27748556 24.90588604 32.07226562 24.046875 C28.88455302 22.80507399 25.69709331 21.5626564 22.51071167 20.31744385 C16.04565042 17.79126609 9.5704016 15.29630252 3.07348633 12.85302734 C1 12 1 12 0 11 C-0.07226502 9.14712498 -0.0838122 7.29166122 -0.0625 5.4375 C-0.05347656 4.42558594 -0.04445313 3.41367188 -0.03515625 2.37109375 C-0.02355469 1.58863281 -0.01195312 0.80617187 0 0 Z " fill="#CD9139" transform="translate(624,244)"/>
<path d="M0 0 C14.85 0 29.7 0 45 0 C45 2.31 45 4.62 45 7 C39.06 7 33.12 7 27 7 C27 22.84 27 38.68 27 55 C24.36 55 21.72 55 19 55 C19 39.16 19 23.32 19 7 C12.73 7 6.46 7 0 7 C0 4.69 0 2.38 0 0 Z " fill="#312524" transform="translate(319,891)"/>
<path d="M0 0 C14.52 0 29.04 0 44 0 C44 2.31 44 4.62 44 7 C38.39 7 32.78 7 27 7 C27 22.51 27 38.02 27 54 C24.69 54 22.38 54 20 54 C20 38.49 20 22.98 20 7 C13.4 7 6.8 7 0 7 C0 4.69 0 2.38 0 0 Z " fill="#271B1A" transform="translate(819,891)"/>
<path d="M0 0 C6.16542051 2.02387549 12.26907116 4.16321549 18.34765625 6.43359375 C19.20379013 6.75280289 20.05992401 7.07201202 20.94200134 7.40089417 C22.73811628 8.07146463 24.53389398 8.74293902 26.3293457 9.4152832 C29.05715651 10.4355015 31.78731531 11.44925571 34.51757812 12.46289062 C36.27358592 13.11939482 38.02945021 13.776283 39.78515625 14.43359375 C40.59058365 14.73164413 41.39601105 15.02969452 42.22584534 15.33677673 C47.33396263 17.25983776 52.15463003 19.48524435 57 22 C57 25.3 57 28.6 57 32 C53.05069657 31.32340788 49.4766141 30.17027648 45.72265625 28.77734375 C44.49627441 28.32464111 43.26989258 27.87193848 42.00634766 27.40551758 C40.69171814 26.916215 39.37710253 26.42687508 38.0625 25.9375 C36.71939032 25.44058822 35.37612734 24.94409058 34.03271484 24.44799805 C31.99662023 23.69602086 29.96063728 22.94375496 27.9251709 22.19007874 C21.66731936 19.87307922 15.39799221 17.58817789 9.125 15.3125 C8.19308838 14.97404053 7.26117676 14.63558105 6.30102539 14.28686523 C4.20083246 13.52416677 2.10044251 12.76201085 0 12 C0 8.04 0 4.08 0 0 Z " fill="#CB8F37" transform="translate(762,315)"/>
<path d="M0 0 C6.49479805 2.13666878 12.93720821 4.38806115 19.36328125 6.72265625 C20.317686 7.06880478 21.27209076 7.41495331 22.25541687 7.77159119 C24.25652543 8.49789535 26.25740241 9.22483786 28.25805664 9.95239258 C31.32017962 11.06529108 34.38368717 12.17431853 37.44726562 13.28320312 C39.39852312 13.99195181 41.34969794 14.70092817 43.30078125 15.41015625 C44.21434891 15.74040298 45.12791656 16.07064972 46.06916809 16.41090393 C46.92072983 16.72140182 47.77229156 17.03189972 48.6496582 17.35180664 C49.39528519 17.62255508 50.14091217 17.89330353 50.90913391 18.17225647 C52.99039602 18.99619792 54.99789481 19.99894741 57 21 C57 24.63 57 28.26 57 32 C44.05012288 27.57612893 31.20233784 22.89022323 18.375 18.125 C17.18528091 17.68361191 17.18528091 17.68361191 15.9715271 17.23330688 C13.69660579 16.38879979 11.42237445 15.5424661 9.1484375 14.6953125 C8.45654831 14.43829056 7.76465912 14.18126862 7.05180359 13.91645813 C2.23240154 12.11620077 2.23240154 12.11620077 0 11 C0 7.37 0 3.74 0 0 Z " fill="#CD9039" transform="translate(762,331)"/>
<path d="M0 0 C22.77 0 45.54 0 69 0 C69 0.66 69 1.32 69 2 C46.89 2 24.78 2 2 2 C2 73.61 2 145.22 2 219 C-0.58289525 215.12565712 -0.27196884 211.93041442 -0.24050903 207.43904114 C-0.24221788 206.55443055 -0.24392673 205.66981997 -0.24568737 204.758403 C-0.24899189 201.78262022 -0.23796273 198.80706097 -0.22705078 195.83129883 C-0.22648688 193.70280462 -0.22680282 191.57431002 -0.22793579 189.44581604 C-0.22851111 183.65688824 -0.21672784 177.86804283 -0.20278788 172.07913423 C-0.19031032 166.03328506 -0.18911237 159.98743415 -0.18673706 153.9415741 C-0.18051353 142.48813191 -0.16409091 131.03472776 -0.14403808 119.58130234 C-0.12170622 106.54400124 -0.11069248 93.50669834 -0.10064721 80.46938288 C-0.07972543 53.64622928 -0.04303831 26.82312786 0 0 Z " fill="#D59E50" transform="translate(669,534)"/>
<path d="M0 0 C2.97 0 5.94 0 9 0 C9 18.15 9 36.3 9 55 C6.03 55 3.06 55 0 55 C0 36.85 0 18.7 0 0 Z " fill="#3E3331" transform="translate(607,891)"/>
<path d="M0 0 C2.64 0 5.28 0 8 0 C8 18.15 8 36.3 8 55 C5.36 55 2.72 55 0 55 C0 36.85 0 18.7 0 0 Z " fill="#2B1F1F" transform="translate(807,891)"/>
<path d="M0 0 C3.04263267 -0.10845027 6.08136204 -0.18752063 9.125 -0.25 C9.9809375 -0.28351562 10.836875 -0.31703125 11.71875 -0.3515625 C17.25577664 -0.43674753 20.78454342 0.00855319 25 4 C25.76171875 6.4375 25.76171875 6.4375 25.6875 9 C25.69330078 10.2684375 25.69330078 10.2684375 25.69921875 11.5625 C25 14 25 14 23.1015625 16.296875 C18.62130696 18.7570657 14.7060437 18.43442705 9.6875 18.25 C8.75615234 18.23195313 7.82480469 18.21390625 6.86523438 18.1953125 C4.57637851 18.14836161 2.28805473 18.07662323 0 18 C0 12.06 0 6.12 0 0 Z " fill="#F7F6F7" transform="translate(725,898)"/>
<path d="M0 0 C2.16093405 2.16093405 2.82366814 3.68559111 3.9453125 6.5 C4.29980469 7.386875 4.65429688 8.27375 5.01953125 9.1875 C5.38433594 10.115625 5.74914062 11.04375 6.125 12 C6.68380859 13.3921875 6.68380859 13.3921875 7.25390625 14.8125 C10 21.73305861 10 21.73305861 10 24 C3.73 24 -2.54 24 -9 24 C-7.07086147 18.21258441 -5.10959798 12.56964393 -2.8125 6.9375 C-2.40354492 5.92526367 -2.40354492 5.92526367 -1.98632812 4.89257812 C-1.32664689 3.26073506 -0.66368579 1.63021848 0 0 Z " fill="#F1F0F0" transform="translate(237,900)"/>
<path d="M0 0 C2.64 0 5.28 0 8 0 C8 18.15 8 36.3 8 55 C5.36 55 2.72 55 0 55 C0 36.85 0 18.7 0 0 Z M1 1 C1 18.16 1 35.32 1 53 C2.65 53 4.3 53 6 53 C6 35.84 6 18.68 6 1 C4.35 1 2.7 1 1 1 Z " fill="#352B2B" transform="translate(807,891)"/>
<path d="M0 0 C2.97 0 5.94 0 9 0 C9 2.97 9 5.94 9 9 C6.03 9 3.06 9 0 9 C0 6.03 0 3.06 0 0 Z " fill="#3E312F" transform="translate(480,937)"/>
<path d="M0 0 C2.64 0 5.28 0 8 0 C8.33 0.99 8.66 1.98 9 3 C6.03 3 3.06 3 0 3 C0 2.01 0 1.02 0 0 Z " fill="#4C4342" transform="translate(750,943)"/>
<path d="M0 0 C0.33 0.66 0.66 1.32 1 2 C0 4 0 4 -2.375 5.1875 C-5 6 -5 6 -8 5 C-4.04 2.525 -4.04 2.525 0 0 Z " fill="#302A2A" transform="translate(140,507)"/>
</svg>
